<svg width="120" height="120" viewBox="0 0 120 120" fill="none" xmlns="http://www.w3.org/2000/svg">
<path d="M86.9769 15.3733C85.3169 17.0333 84.8802 18.17 84.5502 18.8033C82.3502 23.0233 79.7002 24.39 75.2835 19.9733C74.8502 19.54 61.6602 5.75 59.4802 3.25C58.0569 1.61666 55.8769 1.11666 54.2002 2.37666C52.9336 3.33 40.7502 13.2867 37.4169 17.4C34.8369 20.5833 34.7502 24.5133 37.1535 26.92C38.2402 28.0067 39.5769 28.4167 40.9902 28.8467C42.8302 29.41 46.8669 29.0733 49.2236 31.43C53.0002 35.2067 51.0236 41.1767 46.1669 46.1667C41.1769 51.0233 35.2069 53 31.4302 49.2233C29.0702 46.8633 29.4102 42.83 28.8469 40.99C28.4169 39.5767 28.0069 38.2433 26.9202 37.1533C24.5169 34.75 20.5869 34.84 17.4002 37.4167C13.2836 40.75 3.33022 52.9333 2.37689 54.2C1.11355 55.8767 1.61689 58.0533 3.25022 59.48C5.75022 61.66 19.5402 74.85 19.9736 75.2833C24.3869 79.6967 23.0236 82.35 18.8036 84.55C18.1702 84.88 17.0369 85.3133 15.3736 86.9767C13.033 89.3172 11.7181 92.4916 11.7181 95.8017C11.7181 99.1117 13.033 102.286 15.3736 104.627C17.7141 106.967 20.8885 108.282 24.1986 108.282C27.5086 108.282 30.683 106.967 33.0235 104.627C34.6835 102.967 35.1202 101.83 35.4502 101.197C37.6502 96.9767 40.3002 95.61 44.7169 100.027C45.1502 100.46 58.3402 114.25 60.5202 116.75C61.9435 118.383 64.1235 118.883 65.8002 117.623C67.0669 116.67 79.2502 106.713 82.5835 102.6C85.1635 99.4167 85.2502 95.4867 82.8469 93.08C81.7602 91.9933 80.4235 91.5833 79.0102 91.1533C77.1702 90.59 73.1335 90.9267 70.7769 88.57C67.0002 84.7933 68.9769 78.8233 73.8335 73.8333C78.8235 68.9767 84.7935 67 88.5702 70.7767C90.9302 73.1367 90.5902 77.17 91.1536 79.01C91.5836 80.4233 91.9935 81.7567 93.0802 82.8467C95.4835 85.25 99.4136 85.16 102.6 82.5833C106.717 79.25 116.67 67.0667 117.624 65.8C118.887 64.1233 118.384 61.9467 116.75 60.52C114.25 58.34 100.46 45.15 100.027 44.7167C95.6135 40.3033 96.9769 37.65 101.197 35.45C101.83 35.12 102.964 34.6867 104.627 33.0233C106.967 30.6828 108.282 27.5083 108.282 24.1983C108.282 20.8883 106.967 17.7139 104.627 15.3733C102.286 13.0328 99.1119 11.7179 95.8019 11.7179C92.4919 11.7179 89.3174 13.0328 86.9769 15.3733Z" fill="#1f2937"/>
</svg>
