<?xml version="1.0" encoding="UTF-8"?>
<svg id="Laag_1" data-name="Laag 1" width="350" xmlns="http://www.w3.org/2000/svg" version="1.1" viewBox="0 0 635.8 188.4">
  <path d="M-1687.7-874.8c0,1.1-.9,2-2,2s-2-.9-2-2,.9-2,2-2,2,.9,2,2Z" style="fill: #fff; stroke: #fff; stroke-miterlimit: 10; stroke-width: 3px;"/>
  <path d="M-1672.2-874.8c0,1.1-.9,2-2,2s-2-.9-2-2,.9-2,2-2,2,.9,2,2Z" style="fill: #fff; stroke: #fff; stroke-miterlimit: 10; stroke-width: 3px;"/>
  <path d="M-1656.6-874.8c0,1.1-.9,2-2,2s-2-.9-2-2,.9-2,2-2,2,.9,2,2Z" style="fill: #fff; stroke: #fff; stroke-miterlimit: 10; stroke-width: 3px;"/>
  <path d="M-1625.5-874.8c0,1.1-.9,2-2,2s-2-.9-2-2,.9-2,2-2,2,.9,2,2Z" style="fill: #fff; stroke: #fff; stroke-miterlimit: 10; stroke-width: 3px;"/>
  <path d="M-1526.5-874.8c0,1.1-.9,2-2,2s-2-.9-2-2,.9-2,2-2,2,.9,2,2Z" style="fill: #fff; stroke: #fff; stroke-miterlimit: 10; stroke-width: 3px;"/>
  <path d="M-1510.9-874.8c0,1.1-.9,2-2,2s-2-.9-2-2,.9-2,2-2,2,.9,2,2Z" style="fill: #fff; stroke: #fff; stroke-miterlimit: 10; stroke-width: 3px;"/>
  <path d="M-1495.4-874.8c0,1.1-.9,2-2,2s-2-.9-2-2,.9-2,2-2,2,.9,2,2Z" style="fill: #fff; stroke: #fff; stroke-miterlimit: 10; stroke-width: 3px;"/>
  <path d="M-1464.2-874.8c0,1.1-.9,2-2,2s-2-.9-2-2,.9-2,2-2,2,.9,2,2Z" style="fill: #fff; stroke: #fff; stroke-miterlimit: 10; stroke-width: 3px;"/>
  <g>
    <path d="M113.6,160.9c0,2.7-.3,5.2-1,7.6-.6,2.4-1.7,4.5-3.3,6.2-1.5,1.8-3.6,3.2-6.1,4.3-2.6,1.1-5.8,1.6-9.6,1.6H23.5c-3.9,0-7-.6-9.6-1.6-2.6-1.1-4.6-2.5-6.1-4.3-1.6-1.8-2.6-3.9-3.3-6.2-.6-2.4-1-4.9-1-7.6V59.5c0-5.5,1.5-9.9,4.5-13.2,3-3.3,7.8-4.9,14.3-4.9h72.4c6.5,0,11.3,1.6,14.3,4.9,3,3.3,4.5,7.6,4.5,13.2v101.4Z" style="fill: #ff8200; stroke-width: 0px;"/>
    <path d="M99.6,141.7s8.7-7.3,12.1-20c-6.7.1-19.3-1.9-19.3-1.9l-3.5,6.6,10.7,15.3Z" style="fill: #20201e; stroke-width: 0px;"/>
    <path d="M33.6,32.8c-.6,0-1.2-.2-1.7-.7l-15.3-15.6c-.9-.9-.9-2.4,0-3.3.9-.9,2.4-.9,3.3,0l15.3,15.6c.9.9.9,2.4,0,3.3-.5.4-1,.7-1.6.7Z" style="fill: #20201e; stroke-width: 0px;"/>
    <path d="M77.9,32.6c-.5,0-.9-.1-1.3-.4-1-.7-1.3-2.2-.6-3.2l11.9-17.1c.7-1,2.2-1.3,3.2-.6,1.1.7,1.3,2.2.6,3.2l-11.9,17.1c-.4.6-1.2,1-1.9,1Z" style="fill: #20201e; stroke-width: 0px;"/>
    <path d="M54.9,33.1c0,0-.1,0-.2,0-1.3-.1-2.2-1.2-2.1-2.5l2.1-25.5c.1-1.3,1.2-2.2,2.5-2.1,1.3.1,2.2,1.2,2.1,2.5l-2.1,25.5c0,1.2-1.1,2.1-2.3,2.1Z" style="fill: #20201e; stroke-width: 0px;"/>
    <path d="M94.9,60.1l-19.8-1.6-1.1,14s-4.6.6-11,.8c0-3.8.3-14.8.3-14.8l-15.7,1.1-.3,15.1-11.7,2.4.5-16.1-17.2,3.2s.5,21.3,1.7,30.7c10.1,1.5,16,1.5,16,1.5,0,0,4.1,7.7-2.7,19.9-6.8,12.3-17,10.4-15.8,52.6,10.1-.9,27-6.1,27-6.1,0,0-13.8-30.2,11.1-32.2,9.4-.7,15.9,9.3,20,13.9,4.8,3,14.8.6,23.2-2.7-3.7-8-8.2-16.4-14.3-24.8-9.4-12.9-11.3-13.7-11.7-23.5h15.9l5.5-33.2Z" style="fill: #fff; stroke-width: 0px;"/>
    <path d="M54.1,87.8c-5.7,0-10-3-10.1-3.1-.9-.7-1.1-2-.5-2.9.7-.9,2-1.1,2.9-.5.4.3,9.6,6.7,18-3.3.7-.9,2.1-1,3-.3.9.7,1,2.1.3,3-4.6,5.5-9.5,7.1-13.6,7.1Z" style="fill: #ff8200; stroke-width: 0px;"/>
    <path d="M33.6,32.8c-.6,0-1.2-.2-1.7-.7l-15.3-15.6c-.9-.9-.9-2.4,0-3.3.9-.9,2.4-.9,3.3,0l15.3,15.6c.9.9.9,2.4,0,3.3-.5.4-1,.7-1.6.7Z" style="fill: #20201e; stroke-width: 0px;"/>
    <path d="M77.9,32.6c-.5,0-.9-.1-1.3-.4-1-.7-1.3-2.2-.6-3.2l11.9-17.1c.7-1,2.2-1.3,3.2-.6,1.1.7,1.3,2.2.6,3.2l-11.9,17.1c-.4.6-1.2,1-1.9,1Z" style="fill: #20201e; stroke-width: 0px;"/>
    <path d="M54.9,33.1c0,0-.1,0-.2,0-1.3-.1-2.2-1.2-2.1-2.5l2.1-25.5c.1-1.3,1.2-2.2,2.5-2.1,1.3.1,2.2,1.2,2.1,2.5l-2.1,25.5c0,1.2-1.1,2.1-2.3,2.1Z" style="fill: #20201e; stroke-width: 0px;"/>
  </g>
  <g>
    <g>
      <path d="M374.7,101.6v14.8h-10.7v64.8h-16.3v-64.8h-10.7v-14.8h37.7Z" style="fill: #20201e; stroke-width: 0px;"/>
      <path d="M136.3,181.2v-14.8h18.2c1.2,0,1.9-.5,1.9-1.7v-14.5c0-1.1-.2-1.8-.7-2-.4-.2-1.2-.3-2.3-.3h-8.2c-1.2,0-2.3,0-3.3-.3-1.1-.2-2-.6-2.9-1.3-.8-.6-1.5-1.6-2-2.7-.5-1.2-.7-2.8-.7-4.7v-27c0-3.1.9-5.7,2.6-7.5,1.7-1.9,4.5-2.8,8.2-2.8h24.8v14.8h-18.1c-1.3,0-2,.6-2,1.7v14.5c0,.8.2,1.4.6,1.7.4.3,1,.4,1.8.4h10c2.6,0,4.5.6,5.9,1.8,1.4,1.2,2,3.3,2,6.3v26.3c0,4.4-.9,7.5-2.7,9.3-1.8,1.8-5,2.8-9.5,2.8h-23.6Z" style="fill: #20201e; stroke-width: 0px;"/>
      <path d="M593.9,181.2v-14.8h18.2c1.2,0,1.9-.5,1.9-1.7v-14.5c0-1.1-.2-1.8-.7-2-.4-.2-1.2-.3-2.3-.3h-8.2c-1.2,0-2.3,0-3.3-.3-1.1-.2-2-.6-2.9-1.3-.8-.6-1.5-1.6-2-2.7-.5-1.2-.7-2.8-.7-4.7v-27c0-3.1.9-5.7,2.6-7.5,1.7-1.9,4.5-2.8,8.2-2.8h24.8v14.8h-18.1c-1.3,0-2,.6-2,1.7v14.5c0,.8.2,1.4.6,1.7.4.3,1,.4,1.8.4h10c2.6,0,4.5.6,5.9,1.8,1.4,1.2,2,3.3,2,6.3v26.3c0,4.4-.9,7.5-2.7,9.3-1.8,1.8-5,2.8-9.5,2.8h-23.6Z" style="fill: #20201e; stroke-width: 0px;"/>
      <path d="M215,101.7c3.1,0,5.5.9,7.1,2.6,1.6,1.8,2.4,4.1,2.4,7v38.1c0,1.5-.2,2.9-.5,4.2-.3,1.3-.9,2.4-1.8,3.4-.9,1-2,1.7-3.5,2.2-1.5.5-3.3.8-5.5.8h-13.6v21.2h-15.8v-79.6h31.3ZM199.5,115.6v31.3h7.9c.7,0,1.1-.1,1.3-.4.2-.2.3-.7.3-1.3v-28.1c0-1-.5-1.5-1.4-1.5h-8Z" style="fill: #20201e; stroke-width: 0px;"/>
      <path d="M414.8,101.7c3.1,0,5.5.9,7.1,2.6,1.6,1.8,2.4,4.1,2.4,7v38.1c0,1.5-.2,2.9-.5,4.2-.3,1.3-.9,2.4-1.8,3.4-.9,1-2,1.7-3.5,2.2-1.5.5-3.3.8-5.5.8h-13.6v21.2h-15.8v-79.6h31.3ZM399.3,115.6v31.3h7.9c.7,0,1.1-.1,1.3-.4.2-.2.3-.7.3-1.3v-28.1c0-1-.5-1.5-1.4-1.5h-8Z" style="fill: #20201e; stroke-width: 0px;"/>
      <path d="M276.9,169.9c0,1.5-.2,3-.6,4.3-.4,1.4-1,2.5-1.9,3.6-.9,1-2.1,1.9-3.5,2.5-1.5.6-3.3.9-5.5.9h-18.4c-2.2,0-4-.3-5.5-.9-1.5-.6-2.6-1.4-3.5-2.5-.9-1-1.5-2.2-1.9-3.6-.4-1.4-.6-2.8-.6-4.3v-57.9c0-3.1.9-5.6,2.6-7.5,1.7-1.9,4.4-2.8,8.2-2.8h19.7c3.7,0,6.5.9,8.2,2.8,1.7,1.9,2.6,4.4,2.6,7.5v57.9ZM253.1,115.6c-1,0-1.4.5-1.4,1.5v48.5c0,.6,0,1,.3,1.2.2.3.6.4,1.3.4h6c.7,0,1.1-.1,1.3-.4.2-.3.3-.7.3-1.2v-48.5c0-1-.5-1.5-1.4-1.5h-6.3Z" style="fill: #20201e; stroke-width: 0px;"/>
      <path d="M329.4,148.9c0,1.8-.6,3.4-1.8,4.8-1.2,1.5-3,2.2-5.3,2.2l8.3,25.4h-16.5l-7.7-25.4h-2.1v25.4h-15.9v-79.6h30.2c3.7,0,6.5.9,8.2,2.8,1.7,1.9,2.6,4.4,2.6,7.5v36.9ZM304.3,115.6v27.4h7.8c1,0,1.5-.5,1.5-1.6v-24.2c0-1.1-.5-1.6-1.5-1.6h-7.8Z" style="fill: #20201e; stroke-width: 0px;"/>
    </g>
    <path d="M446.9,171.4l-1.4,9.9h-16l14.4-79.6h17l14.4,79.6h-16l-1.4-9.9h-10.9ZM448.6,158.8h7.4l-3.6-28.2-3.7,28.2Z" style="fill: #20201e; stroke-width: 0px;"/>
    <path d="M483.4,101.6h16.4v64.8h16v14.8h-32.4v-79.7Z" style="fill: #20201e; stroke-width: 0px;"/>
    <path d="M522,102h35.2v14.8h-18.1v18.8h13.8v13.7h-13.8v17.3h17.4v14.8h-34.5v-79.3Z" style="fill: #20201e; stroke-width: 0px;"/>
    <path d="M566.8,102h15.9v79.3h-15.9v-79.3Z" style="fill: #20201e; stroke-width: 0px;"/>
  </g>
  <g>
    <path d="M143.8,84.1l-.9,6h-9.7l8.7-48.2h10.3l8.7,48.2h-9.7l-.9-6h-6.6ZM144.8,76.4h4.5l-2.2-17.1-2.3,17.1Z" style="fill: #ff8200; stroke-width: 0px;"/>
    <path d="M165.3,41.9h9.9v39.2h9.7v9h-19.6v-48.2Z" style="fill: #ff8200; stroke-width: 0px;"/>
    <path d="M200.8,62.5l4.9-20.7h10l-5.8,22.2,5.7,26h-10.6l-3.8-19.9h-1.9v19.9h-9.8v-48.2h9.8v20.7h1.5Z" style="fill: #ff8200; stroke-width: 0px;"/>
    <path d="M229.4,67.3v22.7h-9.4v-48.2h10.2l5.3,20.3,5.3-20.3h10.2v48.2h-9.4v-22.7l-6.1,19.3-6.1-19.3Z" style="fill: #ff8200; stroke-width: 0px;"/>
    <path d="M265.9,84.1l-.9,6h-9.7l8.7-48.2h10.3l8.7,48.2h-9.7l-.9-6h-6.6ZM266.9,76.4h4.5l-2.2-17.1-2.3,17.1Z" style="fill: #ff8200; stroke-width: 0px;"/>
    <path d="M297.6,84.1l-.9,6h-9.7l8.7-48.2h10.3l8.7,48.2h-9.7l-.9-6h-6.6ZM298.7,76.4h4.5l-2.2-17.1-2.3,17.1Z" style="fill: #ff8200; stroke-width: 0px;"/>
    <path d="M343.9,70.5c0,1.1-.4,2-1.1,2.9-.7.9-1.8,1.3-3.2,1.3l5.1,15.4h-10l-4.7-15.4h-1.3v15.4h-9.6v-48.2h18.3c2.3,0,3.9.6,5,1.7,1,1.1,1.6,2.7,1.6,4.6v22.3ZM328.7,50.3v16.6h4.7c.6,0,.9-.3.9-1v-14.6c0-.7-.3-1-.9-1h-4.7Z" style="fill: #ff8200; stroke-width: 0px;"/>
  </g>
</svg>